<svg version="1.1" xmlns="http://www.w3.org/2000/svg" xmlns:xlink="http://www.w3.org/1999/xlink" width="139.26434" height="140.18574" viewBox="0,0,139.26434,140.18574"><g transform="translate(-159.12744,-104.25432)"><g data-paper-data="{&quot;isPaintingLayer&quot;:true}" fill-rule="nonzero" stroke-linejoin="miter" stroke-miterlimit="10" stroke-dasharray="" stroke-dashoffset="0" style="mix-blend-mode: normal"><path d="M205.99709,191.14872c0.42043,0.01257 0.81699,-0.05884 1.20125,-0.16137c-0.39959,0.02965 -0.80005,0.08634 -1.20125,0.16137zM202.73687,162.71994c0.49004,-2.4515 2.94154,-1.96145 2.94154,-1.96145l2.49397,0.62337c2.47485,1.39154 6.27787,2.45909 7.80375,5.06585c0.28625,0.48901 1.31221,6.26229 1.45574,7.03695c0.81484,4.39792 1.44021,9.06584 2.78371,13.34562c0.76863,2.44849 3.44878,5.3951 2.64723,8.06492c-0.92178,3.07037 -4.62831,4.68012 -6.73959,3.62921c-0.05244,2.47157 -0.46158,4.68609 -4.21509,5.30461c-3.98162,0.6561 -4.50975,-2.31544 -6.45331,-4.26401c-0.38312,-0.38411 -0.93199,-0.57155 -1.37889,-0.87759l-0.82919,2.3747c-0.27598,0.84006 -0.99005,1.5074 -1.92078,1.67985c-1.03374,0.19153 -2.03669,-0.28264 -2.56743,-1.11914l-1.37641,-2.06416l0.00439,-0.00293c-2.23972,-3.32036 -4.4006,2.0574 -7.61969,1.89384c-1.62493,-0.08257 -3.22257,-1.09559 -4.29485,-2.31926c-0.70145,-0.80048 -0.64746,-1.99714 -0.80685,-3.08188c-0.24172,-0.54081 -0.20658,-1.08298 -0.09472,-1.51586c0.0735,-0.43834 0.26017,-0.94447 0.6954,-1.33916l0.86893,-1.25564c3.36874,-4.20774 5.78176,-10.73427 10.06004,-14.04497c1.63254,-1.26333 4.57195,-1.43452 5.16902,-3.41056c0.19685,-0.6515 -0.34971,-1.33975 -0.30502,-2.01887c0.18055,-2.74449 1.33546,-5.49575 1.78011,-8.24402c-0.16262,-0.3916 -0.22513,-0.88361 -0.10204,-1.49939z" fill="#00081d" stroke="none" stroke-width="0.5" stroke-linecap="butt"/><g fill="#000000" stroke="none" stroke-width="0.5" stroke-linecap="butt"><path d="M236.56309,235.66488c0,1.77778 0,4.22222 0,6c0,0 0,2.5 -2.5,2.5c-2.5,0 -2.5,-2.5 -2.5,-2.5c0,-1.77778 0,-3.55555 0,-5.33334v-0.66666c0,-3.97036 0.30855,-8.16603 0.39116,-12.30034c0.7816,0.19617 1.59973,0.30034 2.44217,0.30034c0.86328,0 1.70101,-0.10939 2.50008,-0.31507c-0.07441,4.13152 -0.33342,8.3033 -0.33342,12.31507z" data-paper-data="{&quot;index&quot;:null}"/><path d="M235.06309,202.83154c1.38071,0 2.5,1.11929 2.5,2.5c0,0.48084 -0.13575,0.92999 -0.37102,1.31119c-0.10009,3.59616 -0.29564,7.20289 -0.29564,10.68881c0,1.77778 0,4.22222 0,6c0,0 0,2.5 -2.5,2.5c-2.5,0 -2.5,-2.5 -2.5,-2.5c0,-1.77778 0,-3.55555 0,-5.33333v-0.66667c0,-3.97036 0.30855,-8.16603 0.39116,-12.30034c0.09488,0.02381 0.19029,0.04627 0.28621,0.06735c0.11751,-1.27147 1.18715,-2.267 2.48929,-2.267z" data-paper-data="{&quot;index&quot;:null}"/></g><g stroke="none" stroke-width="0.5" stroke-linecap="butt"><path d="M269.02884,160.33372c0.55141,0 1.05281,0.2567 1.42564,0.67587l0.44219,-0.17675l0.16193,-0.11651l0.25445,-0.26153l0.43902,-0.26322c0.28972,-0.18291 0.61971,-0.28642 0.96987,-0.28642c0.01836,0 0.03666,0.00029 0.0549,0.00085l0.06164,-0.01643l0.02676,0.02139c1.08457,0.08829 1.94151,1.17124 1.94151,2.49419c0,0.50129 -0.12304,0.96812 -0.33488,1.35944l-0.00177,0.0381l-0.04746,0.04879c-0.20603,0.34775 -0.48439,0.62957 -0.80875,0.81396l-0.13738,0.08237l-0.28256,0.2033l-0.25446,0.26154l-0.23826,0.14285l-0.11013,0.02935l-0.03114,0.02241l-0.01532,-0.005l-0.1165,0.08889l-0.56906,0.22746l-0.24423,0.19524l-0.07899,0.03383l-0.03505,0.07354l-0.27293,0.08182l-0.08056,0.11271l-0.10385,0.00692l-0.12924,0.13284l-0.17778,0.10659l-0.28256,0.2033l-0.02927,0.03008l-0.2884,0.34584l-0.08263,0.29726l-0.0462,0.08706l-0.04722,0.22653l-0.02571,0.40069l-0.13127,0.47227v3.04576l0.01214,0.04369l0.02571,0.40069l0.08128,0.38988v0.12081l0.05688,0.27285v0.30777l0.06225,0.29857v0.3294l0.01214,0.02289l0.03084,0.11096l0.0834,0.15l0.09365,0.31446l0.1495,0.28172l0.03084,0.11096l0.20715,0.3726l0.09229,0.11067l0.10683,0.21352l0.15366,0.1675l0.18807,0.33831l0.42001,0.62956l0.01417,0.03708l0.26879,0.37603l0.31377,0.32251l0.00577,0.12453l0.03695,0.05169l1.03419,0.62007l0.57423,0.22953l0.1266,0.0966l0.14649,0.03903l0.10574,0.0634l0.93163,0.37239l0.12659,0.0966l0.14648,0.03904l0.10574,0.0634l0.57424,0.22953l0.1266,0.0966l0.14648,0.03903l0.29023,0.17401l0.29386,0.0881l0.33415,0.03082l0.3574,0.14286l0.12659,0.0966l0.14649,0.03904l0.27183,0.16298l0.2545,0.0763l0.07213,0.04613l0.08151,0.00752l0.3574,0.14285l0.1266,0.0966l0.14648,0.03903l0.75113,0.45036h0.58003l0.32513,0.09747l0.33415,0.03083l0.35739,0.14285l0.12618,0.09629l0.2549,0.06113h0.13407l0.01948,-0.01558l0.05846,0.01558h0.05809l0.46473,0.13932l0.46763,0.12462l0.05196,0.03115l0.05809,0.01741l0.01162,0.02438l0.22234,0.13331l0.21684,0.08667l0.12659,0.09661l0.14649,0.03903l0.95305,0.57143l0.12924,0.13284l0.10385,0.00692l0.26895,0.37626l0.04829,0.04963l0.04016,0.00268l0.10399,0.14549l0.12133,0.12471l0.00223,0.04815l0.0414,0.05791l0.31377,0.32251l0.00576,0.12454l0.11078,0.15498l0.11914,0.28571l0.04767,0.25725l0.06545,0.07022l-0.02484,0.1489l0.14481,0.78142l-0.35475,0.63809l0.00252,0.05448l-0.04434,0.03545l-0.13546,0.8122l-0.56318,0.42976l-0.07025,0.12635l-0.08767,-0.00584l-0.18541,0.14148l-0.35739,0.14286l-0.33415,0.03082l-0.32513,0.09747h-0.6999l0.04467,0.21428v0.6431l0.06132,0.12256l-0.04295,0.18886l0.11375,0.61381l-0.35331,0.63553l-0.03941,0.18901l-0.05705,0.03909l-0.17385,0.76439l-0.34403,0.11251l-0.19781,0.35579l-0.73947,-0.04926l-0.74571,0.24388l-0.44964,-0.32351l-0.16299,-0.01086l-0.1566,-0.21909l-0.15215,-0.10946l-0.23826,-0.28571l-0.16224,-0.32426l-0.06054,-0.01815l-0.19824,-0.12679l-0.59192,-0.1183l-0.20743,-0.10815l-0.22411,-0.03664l-0.46429,-0.2227l-0.33926,-0.10171l-0.07212,-0.04613l-0.08151,-0.00752l-0.71479,-0.28572l-0.00692,-0.00528l-0.35452,0.08503l-0.03447,-0.00197l-0.03165,0.0165l-0.55345,0.1106l-0.20221,0.08083l-0.0815,0.00752l-0.07213,0.04613l-0.31447,0.09427l-0.68038,0.34966l-0.13237,0.0256l-0.11614,0.08034l-0.73139,0.25059l-0.29511,0.14155l-1.24897,0.99847l-0.12407,0.05313l-0.10003,0.10281l-0.41604,0.24945l-0.34787,0.25028l-0.07909,0.16598l-0.25988,0.07791l-0.22971,0.16527l-0.1538,-0.0503l-0.39902,0.11962h-1.07219l-0.32512,-0.09746l-0.33415,-0.03082l-0.03644,-0.01457h-0.97213l-0.32513,-0.09747l-0.33415,-0.03082l-0.03643,-0.01456h-0.01908l-0.32513,-0.09747l-0.33414,-0.03082l-0.20221,-0.08083l-0.38325,-0.07659h-1.00039l-0.22754,0.06821h-0.25666l-0.24899,0.07465h-0.10075l-0.22754,0.06822h-0.25665l-0.24899,0.07465h-0.35739l-0.88985,-0.26677l-0.04251,0.00283l-0.01039,-0.01869l-0.09966,-0.02987l-0.49829,-1.04567l-0.55711,-1.00208l0.02229,-0.12025l-0.00929,-0.0195l0.02112,-0.04433l0.19898,-1.07371l0.09174,-0.22l0.26746,-0.74836l0.01637,-0.07852v-1.4294l-0.01215,-0.0437l-0.02571,-0.40069l-0.08128,-0.38988v-0.31061l-0.07864,-0.1991l-0.11913,-0.71429l0.00988,-0.24872l-0.04255,-0.20408l-0.02598,-0.06231l-0.03255,-0.17566l-0.08056,-0.1518l-0.18673,-0.67175l-0.01705,-0.01168l-0.01452,-0.06966l-0.02598,-0.0623l-0.10392,-0.56076l-0.11618,-0.55728v-0.06966l-0.01299,-0.07009l0.01299,-0.02336v-0.24341l-0.05688,-0.27285v-0.30776l-0.06225,-0.29857v-1.85714l-0.04263,-0.2045l-0.13783,-0.27545l0.04195,-0.18443l-0.09976,-0.47848v-0.53662l-0.09818,-0.82411l0.01544,-0.17898l-0.03639,-0.17457v-4.14285l0.05568,-0.2671l-0.00605,-0.27523l0.22333,-1.20512l0.2278,-1.77555l0.01852,-0.05287l-0.00228,-0.05728l0.07865,-0.47154v-3.75069l-0.00296,-0.01591l-0.11618,-0.55728v-0.06966l-0.01299,-0.07009l0.01299,-0.02336v-0.55117l0.2606,-1.25l0.21082,-0.14446l0.04761,-0.28551l0.90651,-0.69174l0.21683,-0.08667l1.05881,-0.63483l0.10868,-0.02896l0.09165,-0.07579l0.95306,-0.42857l0.24421,-0.03347l0.22922,-0.1064l0.95306,-0.14286l0.13078,0.01901l0.12781,-0.03831h1.42959l1.04241,0.3125l0.55188,1.15814c0.2432,-0.11921 0.50938,-0.18492 0.78836,-0.18492z" fill="#000000"/><path d="M285.6478,167.54801c0,-0.89182 0.38942,-1.67458 0.97548,-2.11709c-0.03294,-1.70565 0.83145,-3.43995 2.64124,-4.52505l0.96987,-0.28642c0.11579,0 0.22937,0.01132 0.34002,0.03308c1.25128,0.1924 4.14739,1.21456 4.50301,2.92031c0.49155,2.35775 0.37289,8.15897 -2.46297,8.34789c-1.29196,0.08607 -1.57364,-1.46291 -2.30632,-1.71981c-0.49161,-0.17237 -0.93511,-0.39146 -1.32988,-0.648c-0.34753,0.31099 -0.77865,0.49509 -1.24563,0.49509c-1.15141,0 -2.08482,-1.11929 -2.08482,-2.5z" fill="#000000"/><path d="M273.37034,177.04608c0.19976,5.11636 -5.87403,7.99628 -8.63722,9.64141c-1.26653,0.75406 -4.13593,1.42025 -5.10577,0.25727c-4.25864,-5.10673 3.76981,-4.14993 5.83144,-5.63967c1.6856,-1.21802 2.77341,-3.29525 3.92883,-5.18885c0.05647,-0.14284 0.12389,-0.27823 0.20097,-0.40462c0.37925,-0.62186 0.99226,-1.02578 1.68394,-1.02578c1.02386,0 1.87533,0.88504 2.05142,2.05194c0.02611,0.0969 0.04213,0.19936 0.04639,0.30831z" fill="#ff0000"/><path d="M263.88891,190.27284c-1.30458,0 -2.98169,0.77811 -3.90416,-0.32808c-1.45562,-1.74551 -1.22978,-4.48627 1.04241,-4.6875c3.23973,-0.28692 4.67914,-0.2645 7.39498,-2.27759c1.64683,-1.2207 2.96775,-4.08853 4.38938,-5.06267c0.36266,-0.73686 1.03155,-1.23117 1.79672,-1.23117c1.15141,0 2.08482,1.11929 2.08482,2.5c0,0.48068 -0.11313,0.92968 -0.3092,1.31079c-0.86663,4.52412 -9.38267,9.77622 -12.49494,9.77622z" fill="#c40000"/><path d="M276.62897,185.44607c-3.06592,2.64986 -6.02208,5.1077 -9.57413,6.87201c-0.91992,0.45693 -5.34996,1.07314 -6.07229,0.20695c-1.65848,-1.98876 -0.15493,-3.55598 1.05317,-4.42519c1.09127,-0.78516 2.62069,0.05414 3.68564,-0.47482c2.49809,-1.24081 4.56854,-2.95945 6.747,-4.84229c0.75436,-0.65198 3.79985,-3.957 4.5259,-3.52168c0.03831,-0.00252 0.07691,-0.00379 0.11575,-0.00379c1.15141,0 2.08481,1.11929 2.08481,2.5c0.60098,1.14915 -2.09113,3.27851 -2.56585,3.68882z" fill="#8e0000"/><path d="M287.73261,159.19087c0.8697,0.97347 2.21403,2.30637 1.84596,3.66302c-0.01439,0.05305 -0.05633,0.13495 -0.12002,0.23974c-0.05274,0.09312 -0.11057,0.18175 -0.17303,0.26532c-0.75769,1.1075 -2.69009,3.45856 -2.61455,3.78204c0.1238,0.53011 5.98103,2.97266 6.97945,4.86662c0.7652,1.45155 -0.29451,3.47583 -1.63163,3.91312c-1.07853,0.35273 -3.88053,-2.50139 -4.53732,-2.87107c-6.03974,-3.39951 -6.58816,-4.04752 -3.12022,-10.19206c0.3825,-0.67772 1.84341,-3.2389 2.23769,-3.26516z" fill="#00081d"/><path d="M277.09103,163.94555c-1.35639,2.39406 -7.44803,4.04167 -3.88775,8.31097c2.34461,2.81153 5.78624,5.19294 8.84225,6.72942c2.64704,1.33087 5.04971,-0.31908 7.31613,2.73594c0.52762,0.71121 0.39539,1.97769 0.8664,2.79217c0.6378,1.10289 5.24336,8.10537 0.12547,8.10537c-1.84157,0 -4.31267,-7.84494 -4.54615,-7.89953c-6.41168,-1.49898 -12.30479,-4.4125 -16.704,-10.40413c-3.38362,-4.60842 1.07411,-12.24308 4.96311,-13.79758l0.3065,-0.18376c0.28972,-0.18291 0.61971,-0.28643 0.96987,-0.28643c0.87144,0 1.61799,0.64114 1.92953,1.55151c0.31609,0.62457 0.33688,1.43133 -0.18136,2.34604z" fill="#04009d"/><path d="M278.85726,163.69087c-1.25885,1.28389 -4.51732,5.23447 -3.00557,7.44575c1.47885,2.16316 4.36978,2.92038 6.47713,3.55214c3.46987,1.04022 7.70956,4.52563 10.21369,7.66291c0.99497,1.24654 4.24227,10.06891 -0.94214,7.99662c-0.66441,-0.26558 -1.08776,-1.12644 -1.40096,-1.8776c-0.19958,-0.47865 0.32434,-1.14267 0.09456,-1.60143c-0.66635,-1.3304 -2.00658,-2.42612 -3.01822,-3.25328c-4.60007,-3.76122 -12.43447,-4.66033 -15.45944,-10.70597c-2.03944,-4.07597 0.76934,-8.27971 2.82588,-11.00905c0.47919,-0.63595 2.02928,-3.49299 2.91809,-3.20232c0.16702,-0.05169 0.34213,-0.07919 0.52262,-0.07919c1.15141,0 2.08482,1.11929 2.08482,2.5c0.22827,0.35354 -0.03504,0.93161 -0.38992,1.45607c-0.07812,0.13052 -0.16646,0.25164 -0.26362,0.36169c-0.27071,0.34804 -0.53952,0.63393 -0.65693,0.75366z" fill="#040080"/><path d="M278.59825,160.43618c0.15479,-0.1591 0.30499,-0.30524 0.45121,-0.43675c0.38105,-0.49707 0.9278,-0.80857 1.53523,-0.80857c1.15141,0 2.08481,1.11929 2.08481,2.5c0,0.24984 -0.03056,0.49113 -0.08745,0.71878c-0.10421,0.41703 -0.29678,0.78827 -0.55163,1.08247c-1.2022,2.0126 -3.56173,4.85028 -3.18772,5.14575c4.14227,3.27241 10.62812,2.85929 13.75311,8.05841c0.82167,1.36705 3.09824,4.59947 1.48806,6.5303c-3.35554,4.02379 -3.61208,-3.40297 -6.03973,-4.9011c-2.93258,-1.80974 -17.94009,-5.67254 -12.7816,-12.8893c1.14253,-1.59841 2.15439,-3.23089 3.32993,-4.87547z" fill="#03004f"/><path d="M285.82826,162.78235c-0.00886,0.0379 -0.02604,0.08313 -0.05061,0.13491c-0.16992,0.60552 -0.52794,1.10738 -0.99075,1.40569c-1.03329,1.32286 -2.42755,3.00724 -2.20092,3.39177c0.39146,0.66421 1.57652,0.5043 2.11281,0.89016c2.88486,2.07562 9.53107,4.53901 10.24134,8.37171c0.1805,0.97401 -1.13107,2.84925 -2.08482,2.78571c-1.56395,-0.10419 -2.10153,-2.65798 -3.59431,-3c-2.57131,-0.58912 -9.8247,-4.52791 -11.13067,-7.138c-1.01857,-2.03569 2.42055,-7.45625 4.22429,-9.30505c0.09337,-0.10792 0.19512,-0.20549 0.30396,-0.29117c0.28014,-0.24679 0.498,-0.36935 0.62007,-0.32943c0.16702,-0.05169 0.34213,-0.07919 0.52262,-0.07919c1.15141,0 2.08482,1.11929 2.08482,2.5c0,0.0025 -0.00001,0.005 -0.00001,0.00751c0.01701,0.19216 0.00015,0.40755 -0.05779,0.6554z" fill="#01002c"/><g fill="#000000"><path d="M268.83458,184.03569c0.94692,0.64885 1.61464,1.85244 2.01796,3.1304c0.1283,0.40654 0.22986,0.82061 0.30512,1.22674c0.072,0.38849 0.13277,2.9411 0.41788,2.98345c3.19037,0.47399 2.23576,-10.36847 6.44503,-8.12512c2.44835,1.30486 0.74372,3.99786 0.06019,5.706c-0.76068,1.90097 -1.23162,3.48998 -2.33649,5.07853c-3.20627,4.60985 -8.19515,2.17287 -8.51797,-3.43596c-0.05452,-0.94741 -1.14614,-4.67664 -0.18844,-5.33288z"/><path d="M278.36517,183.60712c0.94692,0.64885 1.61465,1.85244 2.01797,3.1304c0.1283,0.40654 0.22985,0.82061 0.30511,1.22674c0.072,0.38849 0.13277,2.9411 0.41788,2.98345c3.19037,0.47399 2.23576,-10.36846 6.44503,-8.12512c2.44835,1.30486 0.74372,3.99786 0.06019,5.706c-0.76068,1.90097 -1.23162,3.48998 -2.33649,5.07853c-3.20627,4.60985 -8.19515,2.17287 -8.51797,-3.43596c-0.05452,-0.94741 -1.14614,-4.67664 -0.18844,-5.33288z"/><path d="M288.88107,162.33955c-3.47961,-0.67712 -7.57811,-0.75473 -11.09494,-0.61682c-0.82723,0.03244 -1.25413,0.89924 -2.16102,1c-2.38847,0.26538 -4.75216,-0.70692 -7.12886,-0.71429c-0.95998,-0.00298 -4.75699,0.63421 -7.70753,0.41392c0.00168,0.11255 0.0028,0.21591 0.00441,0.30704c0.0679,3.8308 0.82215,7.40445 0.83393,11.32733c0.0102,3.39766 0.11293,5.66341 0.11914,10.09972c0.00049,0.34834 -0.10719,1.55725 -0.23886,2.53153c0.00039,0.01999 0.00059,0.04005 0.00059,0.06016c0,0.28117 -0.03871,0.5515 -0.11008,0.80374c0.05821,0.15536 0.11233,0.31278 0.16237,0.47134c0.1283,0.40654 0.22985,0.82061 0.30511,1.22674c0.072,0.38849 0.13277,2.9411 0.41787,2.98345c3.19037,0.47399 2.23577,-10.36847 6.44504,-8.12512c2.44835,1.30486 0.74371,3.99787 0.06018,5.70601c-0.76068,1.90097 -1.23162,3.48997 -2.33649,5.07852c-3.20627,4.60985 -8.19514,2.17287 -8.51796,-3.43595c-0.04067,-0.70654 -0.65811,-2.96019 -0.57223,-4.33266c-0.01543,-0.12267 -0.02344,-0.24825 -0.02344,-0.37607c0,-0.30446 0.04539,-0.5962 0.12849,-0.86604c-0.67914,-3.24483 0.11379,-7.68247 0.10978,-10.58541c-0.00415,-3.00339 -0.21338,-5.12856 -0.7148,-7.83426c-0.31706,-1.71093 -0.60284,-5.40705 0.23941,-7.30696c0.08407,-2.468 4.79176,-3.1626 6.60811,-3.1626c3.65102,0 7.48124,0.83044 11.0814,0.72986c0.8683,-0.02426 1.7897,-1.01558 2.73795,-1.01558c3.78038,0 7.92245,-0.03997 11.64529,0.68448c1.52608,0.29697 6.74218,-0.51775 7.62903,1.22037c0.02082,0.02038 0.04136,0.04126 0.06161,0.06264c0.58732,0.44166 0.97799,1.22461 0.97872,2.11705c0.08843,0.42673 0.13213,0.85395 0.13213,1.23908c0,4.54618 -0.48314,8.96 -0.48952,13.45194c-0.00426,3.00032 1.66361,7.30508 0.48352,9.52275c-0.25175,0.94419 -0.76056,1.90328 -1.06577,2.666c-0.76068,1.90097 -1.23162,3.48998 -2.3365,5.07853c-3.20627,4.60985 -8.19515,2.17287 -8.51796,-3.43596c-0.05452,-0.94741 -1.14614,-4.67664 -0.18843,-5.33288l1.79672,-1.23117c0.94692,0.64885 1.61465,1.85244 2.01797,3.1304c0.1283,0.40654 0.22985,0.82061 0.30511,1.22674c0.072,0.38849 0.13277,2.9411 0.41788,2.98345c1.67529,0.2489 2.20764,-2.62257 2.94492,-5.08117c-0.01783,-0.13154 -0.0271,-0.26652 -0.0271,-0.4041c0,-0.1306 0.00835,-0.25887 0.02445,-0.38406c-1.66106,-4.79081 0.36062,-12.94088 0.45208,-17.77159c0.01207,-0.63711 -0.15432,-1.91974 -0.21904,-3.29217c-1.52259,-0.05742 -3.18543,-0.52463 -4.69268,-0.81793z"/></g></g><g fill="#000000" stroke="none" stroke-width="0.5" stroke-linecap="butt"><path d="M258.42489,235.94006c0,1.77778 0,4.22222 0,6c0,0 0,2.5 -2.5,2.5c-2.5,0 -2.5,-2.5 -2.5,-2.5c0,-1.77778 0,-3.55555 0,-5.33333v-0.66666c0,-3.97036 0.30855,-8.16604 0.39116,-12.30035c0.7816,0.19617 1.59973,0.30034 2.44217,0.30035c0.86328,0 1.70101,-0.10939 2.50008,-0.31507c-0.07441,4.13151 -0.33341,8.3033 -0.33341,12.31507z" data-paper-data="{&quot;index&quot;:null}"/><path d="M256.92489,203.10672c1.38071,0 2.5,1.11929 2.5,2.5c0,0.48084 -0.13575,0.92998 -0.37102,1.31118c-0.10009,3.59616 -0.29564,7.2029 -0.29564,10.68881c0,1.77778 0,4.22222 0,6c0,0 0,2.5 -2.5,2.5c-2.5,0 -2.5,-2.5 -2.5,-2.5c0,-1.77778 0,-3.55556 0,-5.33334v-0.66667c0,-3.97036 0.30856,-8.16603 0.39116,-12.30034c0.09487,0.02381 0.19028,0.04626 0.28621,0.06734c0.11751,-1.27147 1.18714,-2.267 2.48929,-2.267z" data-paper-data="{&quot;index&quot;:null}"/></g><g><path d="M267.00842,132.30775c0,10.03318 -12.87968,18.16666 -23.83333,18.16666c-7.02479,0 -14.86324,-2.67856 -18.38689,-7.72474c-1.97072,-2.82225 -1.44644,-6.84322 -1.44644,-10.44193c0,-5.95921 1.75617,-9.80298 6.07398,-14.35993c2.95184,-3.11532 -0.94262,-8.65099 6.75935,-9.14007c1.14209,-0.07252 14.74293,-1.05206 20.86445,2.44564c8.48434,4.84776 9.96888,15.22623 9.96888,21.05436z" fill="#000000" stroke="none" stroke-width="NaN" stroke-linecap="butt"/><path d="M238.50842,133.80775c0,-1.38071 1.11929,-2.5 2.5,-2.5c1.38071,0 2.5,1.11929 2.5,2.5c0,1.38071 -1.11929,2.5 -2.5,2.5c-1.38071,0 -2.5,-1.11929 -2.5,-2.5z" fill="#23173a" stroke="none" stroke-width="0.5" stroke-linecap="butt"/><path d="M260.00842,134.49468l-0.66667,-11.66666" fill="none" stroke="#ffffff" stroke-width="5" stroke-linecap="round"/><path d="M227.90732,146.59579c-1.76776,-1.76776 0,-3.53554 0,-3.53554l0.86075,-0.73618c11.00466,-6.03264 8.74035,-21.46631 8.74035,-32.16272c0,0 0,-2.5 2.5,-2.5c2.5,0 2.5,2.5 2.5,2.5c0,13.13899 1.70007,28.87881 -11.25965,36.50394l0.19409,-0.0695c0,0 -1.76777,1.76776 -3.53553,0z" fill="#ffffff" stroke="none" stroke-width="0.5" stroke-linecap="butt"/><path d="M230.93076,149.96067c-2.46599,-0.41099 -2.05499,-2.87698 -2.05499,-2.87698l1.03155,-3.35677c1.95803,-1.95432 3.71141,-4.04133 5.66666,-6c0,0 0.44644,-0.44644 1.11498,-0.66626c0.30192,-1.02596 0.62611,-2.03801 1.05647,-2.96179c1.07179,-2.30066 2.46637,-4.29508 2.78172,-6.90964c0.71928,-5.96359 -0.67513,-12.36494 -0.6854,-18.36121c0,0 0,-2.5 2.5,-2.5c2.5,0 2.5,2.5 2.5,2.5c-0.01193,6.20091 1.43996,12.79958 0.64794,18.97212c-0.40767,3.17716 -1.90732,5.6196 -3.21828,8.4237c-1.12694,2.41049 -1.53121,5.41925 -2.70057,7.73608c-0.87722,1.73802 -2.39749,3.0696 -3.52809,4.65453l-2.76132,1.3056c0,0 -0.563,0.14075 -1.2143,0.01538c-0.3192,0.0802 -0.69485,0.09884 -1.13638,0.02525z" fill="#b9b9b9" stroke="none" stroke-width="0.5" stroke-linecap="butt"/><path d="M238.55706,150.39742c-2.23607,-1.11803 -1.11803,-3.3541 -1.11803,-3.3541l0.73212,-1.45565c1.89091,-3.14567 1.7394,-6.97789 2.78311,-10.50119c0.70432,-2.37759 2.33789,-4.52406 2.97452,-6.91233c0.63289,-2.37424 0.76391,-5.38083 0.91781,-7.83482c0.09466,-1.50937 0.48898,-3.08063 0.07892,-4.53632c-0.54672,-1.94083 -1.72396,-3.66115 -2.31165,-5.58996c0,0 -0.71837,-2.39456 1.67619,-3.11293c2.39457,-0.71837 3.11294,1.6762 3.11294,1.6762c0.58452,1.98487 1.84076,3.73914 2.35501,5.74336c1.0337,4.02862 0.05451,10.9967 -1.00327,14.9622c-0.65765,2.46546 -2.3129,4.64441 -3.02548,7.08767c-1.17315,4.02246 -1.17087,7.78781 -3.21689,11.49882l-0.60121,1.21102c0,0 -1.11803,2.23607 -3.3541,1.11803z" fill="#7a7a7a" stroke="none" stroke-width="0.5" stroke-linecap="butt"/><path d="M244.67509,149.66135c-2.5,0 -2.5,-2.5 -2.5,-2.5l0.01931,-2.64342c1.34315,-10.26479 9.48127,-22.50307 2.44636,-32.23682c0,0 -1.4531,-2.03434 0.58124,-3.48743c2.03433,-1.45309 3.48743,0.58124 3.48743,0.58124c5.72543,8.09435 3.66562,19.57696 0.66818,28.58455c-0.85885,2.58093 -1.89902,4.43682 -2.22182,7.17864l0.01931,2.02325c0,0 0,2.5 -2.5,2.5z" fill="#595959" stroke="none" stroke-width="0.5" stroke-linecap="butt"/><path d="M248.34175,151.32802c-2.5,0 -2.5,-2.5 -2.5,-2.5l0.00483,-2.82201c0.62186,-4.97875 2.89424,-8.96571 4.0571,-13.73101c0.3932,-1.61129 0.0409,-3.31977 -0.05811,-4.97539c-0.31271,-5.22921 -0.34817,-9.91931 -2.46836,-14.82012c0,0 -0.9848,-2.29786 1.31306,-3.28266c2.29787,-0.9848 3.28267,1.31307 3.28267,1.31307c2.32632,5.47212 2.52766,10.68786 2.86498,16.51321c0.12252,2.11586 0.41477,4.29196 -0.0581,6.35794c-1.03213,4.50934 -3.35892,8.26835 -3.9429,12.93566l0.00483,2.51132c0,0 0,2.5 -2.5,2.5z" fill="#343434" stroke="none" stroke-width="0.5" stroke-linecap="butt"/><path d="M234.88965,105.72432c0.18922,-0.30814 0.43086,-0.52923 0.68753,-0.68747c0.08024,-0.07824 1.65991,-1.58015 3.30541,-0.2049c5.69874,0.62422 11.45141,1.29148 16.6147,3.75889c0.89185,0.42619 1.50397,1.28731 2.31058,1.85862c2.57167,1.82146 5.45059,3.22239 7.05121,6.14169c1.64704,3.00395 2.51807,7.01703 3.25647,10.34095c0.53342,2.40118 1.34179,5.39915 1.04176,7.83988c-0.47848,3.89237 -2.76188,7.64129 -4.9832,10.7365c-2.96405,2.50535 -5.90017,4.8696 -9.56695,6.2857c-6.3236,2.44214 -14.5641,0.68252 -20.87176,-0.89439c-5.36828,-1.34207 -10.76791,-2.98874 -13.0296,-8.78502c-2.13404,-5.46915 -0.14024,-11.24683 2.01558,-16.31671c3.14047,-6.90309 5.73712,-13.6119 11.18592,-19.09139zM237.92879,109.75625l-0.48594,0.48594c-5.00866,4.97622 -7.28567,11.27419 -10.1474,17.57528c-1.57805,3.64788 -3.53041,8.35359 -1.98443,12.34996c1.64127,4.24268 5.82673,4.92906 9.63707,5.88164c4.40795,1.10199 8.18731,1.57709 12.727,1.59202c1.98744,0.00654 3.25655,0.2728 5.06791,-0.48641c2.96621,-1.24324 5.30164,-3.03074 7.76639,-5.04764c1.56948,-2.21288 3.33274,-5.18708 3.68347,-7.93017c0.19957,-1.56081 -0.61383,-4.61087 -0.95824,-6.16012c-0.64878,-2.91841 -1.37627,-6.31885 -2.74353,-8.99238c-1.08372,-2.11911 -3.84033,-3.24485 -5.61546,-4.52498c-0.6063,-0.43723 -1.0108,-1.16129 -1.68942,-1.47472c-4.73254,-2.18577 -10.0233,-2.705 -15.25742,-3.26842z" fill="#000000" stroke="none" stroke-width="0.5" stroke-linecap="butt"/></g><path d="M161.07097,186.16317c-2.36676,-0.80527 -1.56149,-3.17203 -1.56149,-3.17203l0.33847,-0.88919c1.92971,-11.4483 9.0415,-22.00899 19.1363,-27.96711c0,0 2.15641,-1.26487 3.42128,0.89153c1.26488,2.15642 -0.89153,3.42128 -0.89153,3.42128c-8.77999,5.11301 -15.15148,14.53019 -16.73218,24.46474l-0.53884,1.68929c0,0 -0.80527,2.36676 -3.17203,1.56148z" data-paper-data="{&quot;index&quot;:null}" fill="#000000" stroke="#ffffff" stroke-width="0.5" stroke-linecap="butt"/><path d="M168.34594,192.01628c-2.36676,-0.80527 -1.56149,-3.17203 -1.56149,-3.17203l0.33847,-0.88919c1.92971,-11.4483 9.0415,-22.00898 19.1363,-27.96711c0,0 2.15641,-1.26487 3.42128,0.89153c1.26488,2.15642 -0.89153,3.42128 -0.89153,3.42128c-8.77999,5.11301 -15.15148,14.53019 -16.73218,24.46474l-0.53884,1.68929c0,0 -0.80527,2.36676 -3.17203,1.56148z" data-paper-data="{&quot;index&quot;:null}" fill="#000000" stroke="#ffffff" stroke-width="0.5" stroke-linecap="butt"/></g></g></svg>