<?xml version="1.0" encoding="UTF-8"?>
<!-- Generator: Blender, SVG Export for Grease Pencil - v2.1 -->
<!DOCTYPE svg PUBLIC "-//W3C//DTD SVG 1.1//EN" "http://www.w3.org/Graphics/SVG/1.1/DTD/svg11.dtd">
<svg version="1.1" x="0px" y="0px" xmlns="http://www.w3.org/2000/svg" width="145.224060px" height="309.151245px" viewBox="0 0 145.224060 309.151245">
	<g id="blender_frame.1">
		<g id="blender_object.plr.svg.001.1.uuid_0x0">
			<g id="layer.path17.uuid_0x1">
				<path d="M102.40567,278.26434 C 102.41586,282.3742, 102.4299,288.0149, 102.44006,292.10977 C 102.44006,292.10977, 102.454315,297.85742, 96.5177,297.96332 C 90.57553,298.0692, 90.54837,292.3164, 90.54837,292.3164 C 90.52899,288.21783, 90.50961,284.11304, 90.49017,280.0019 C 90.48776,279.48755, 90.48532,278.97308, 90.48291,278.45856 C 90.43942,269.2486, 91.132324,259.47037, 91.286255,249.8086 C 93.16321,250.24129, 95.12601,250.4574, 97.14545,250.42899 C 99.2142,250.39983, 101.22043,250.1158, 103.13306,249.60794 C 102.97775,259.25427, 102.38257,268.96655, 102.40567,278.26434z" fill-rule="evenodd" fill="#000000" stroke="none" fill-opacity="1" />
			</g>
			<g id="layer.path18.uuid_0x2">
				<path d="M98.71484,200.51808 C 102.05441,200.48416, 104.76572,203.12157, 104.77234,206.40526 C 104.77463,207.54788, 104.44916,208.61827, 103.88327,209.52963 C 103.660675,218.05705, 103.20914,226.58566, 103.22812,234.7977 C 103.23776,238.9761, 103.25101,244.71077, 103.26062,248.87375 C 103.26062,248.87375, 103.27414,254.71704, 97.28787,254.80342 C 91.29599,254.8899, 91.26935,249.04126, 91.26935,249.04126 C 91.25043,244.87448, 91.231415,240.70122, 91.2124,236.52138 C 91.21002,235.99849, 91.20764,235.4754, 91.20526,234.95229 C 91.16266,225.5884, 91.86276,215.64912, 92.01929,205.826 C 92.249176,205.88026, 92.48013,205.93135, 92.71243,205.97885 C 92.98404,202.94875, 95.56372,200.54991, 98.71484,200.51808z" fill-rule="evenodd" fill="#000000" stroke="none" fill-opacity="1" />
			</g>
			<g id="layer.path17-9.uuid_0x3">
				<path d="M51.839508,275.31073 C 51.888916,279.43573, 51.956696,285.09717, 52.00589,289.2071 C 52.00589,289.2071, 52.07495,294.97583, 46.09619,295.0806 C 40.111786,295.18555, 40.029633,289.41162, 40.029633,289.41162 C 39.9711,285.29803, 39.912476,281.17807, 39.85379,277.0518 C 39.846436,276.53552, 39.83911,276.0192, 39.831757,275.50278 C 39.700256,266.2588, 40.305084,256.44452, 40.368134,246.74695 C 42.26291,247.18172, 44.242126,247.39911, 46.276062,247.37106 C 48.35962,247.34233, 50.377747,247.05775, 52.29953,246.54848 C 52.234802,256.2306, 51.727753,265.9787, 51.839508,275.31073z" fill-rule="evenodd" fill="#000000" stroke="none" fill-opacity="1" />
			</g>
			<g id="layer.path18-4.uuid_0x4">
				<path d="M47.518982,197.31631 C 50.884064,197.28313, 53.64145,199.93231, 53.67929,203.22977 C 53.692444,204.37717, 53.374603,205.45195, 52.81302,206.36699 C 52.669586,214.93, 52.295563,223.494, 52.39264,231.74016 C 52.442047,235.93591, 52.509857,241.69435, 52.55902,245.87456 C 52.55902,245.87456, 52.628143,251.74194, 46.596527,251.82724 C 40.559235,251.9126, 40.476837,246.03984, 40.476837,246.03984 C 40.41815,241.85579, 40.359344,237.66522, 40.300476,233.46805 C 40.29309,232.94295, 40.285736,232.41774, 40.27838,231.89241 C 40.146454,222.48956, 40.75757,212.50899, 40.82196,202.6448 C 41.054108,202.69931, 41.287354,202.75067, 41.521942,202.79846 C 41.766846,199.75569, 44.34372,197.3475, 47.518982,197.31631z" fill-rule="evenodd" fill="#000000" stroke="none" fill-opacity="1" />
			</g>
			<g id="layer.g17.uuid_0x5">
				<path d="M48.62506,138.89348 C 50.024506,138.8861, 51.30429,139.52577, 52.262268,140.57579 C 52.634308,140.42549, 53.00641,140.27522, 53.37848,140.12492 C 53.51425,140.02647, 53.649994,139.92796, 53.785736,139.82951 C 53.99832,139.60893, 54.210968,139.38829, 54.423553,139.16774 C 54.792145,138.9449, 55.160797,138.72206, 55.52942,138.49922 C 56.259003,138.0348, 57.092865,137.76982, 57.98053,137.76521 C 58.02719,137.76494, 58.07361,137.76543, 58.11975,137.76662 C 58.17166,137.75258, 58.22354,137.73854, 58.275482,137.7245 C 58.29831,137.74232, 58.321136,137.76018, 58.343964,137.77803 C 61.094727,137.98604, 63.291565,140.69875, 63.323425,144.02287 C 63.33548,145.28139, 63.035553,146.45467, 62.5094,147.43947 C 62.508026,147.47133, 62.506622,147.50322, 62.50525,147.53505 C 62.465576,147.57613, 62.426025,147.61714, 62.386353,147.65816 C 61.873962,148.53331, 61.177216,149.24416, 60.361725,149.71132 C 60.246582,149.7809, 60.13156,149.85045, 60.01642,149.92 C 59.78003,150.0913, 59.54355,150.26262, 59.30716,150.43391 C 59.095,150.65367, 58.88272,150.87352, 58.670593,151.09325 C 58.47104,151.21382, 58.271454,151.33437, 58.0719,151.45494 C 57.97934,151.47997, 57.88675,151.50505, 57.79419,151.5301 C 57.768127,151.54897, 57.742188,151.56783, 57.716156,151.58669 C 57.703247,151.5826, 57.690308,151.57848, 57.67737,151.57442 C 57.579987,151.64925, 57.482544,151.72414, 57.385162,151.79893 C 56.90753,151.99193, 56.42993,152.18489, 55.95227,152.37785 C 55.74814,152.54219, 55.54413,152.7065, 55.339996,152.8708 C 55.273712,152.89943, 55.207367,152.92809, 55.141083,152.95674 C 55.112213,153.01833, 55.083282,153.07982, 55.054413,153.14137 C 54.825073,153.21114, 54.595764,153.28093, 54.366455,153.35066 C 54.29959,153.4452, 54.232635,153.53975, 54.16577,153.63426 C 54.07831,153.64067, 53.990784,153.64708, 53.90332,153.65346 C 53.795593,153.76506, 53.687958,153.87666, 53.58026,153.98824 C 53.431335,154.07817, 53.28253,154.1681, 53.133636,154.25801 C 52.8974,154.42924, 52.661102,154.60042, 52.424866,154.77162 C 52.40045,154.79692, 52.376038,154.82219, 52.351624,154.84749 C 52.111816,155.13765, 51.87207,155.42781, 51.632324,155.71791 C 51.565613,155.96638, 51.49884,156.21474, 51.43213,156.46318 C 51.394043,156.53609, 51.355988,156.60896, 51.31787,156.68187 C 51.280273,156.87105, 51.242798,157.0602, 51.20517,157.24937 C 51.18747,157.5836, 51.1698,157.9178, 51.15207,158.2519 C 51.046112,158.64632, 50.940216,159.04063, 50.83429,159.43489 C 50.86447,161.97136, 50.894623,164.50536, 50.924774,167.0371 C 50.935364,167.07332, 50.945984,167.10951, 50.956573,167.1458 C 50.982178,167.47847, 51.00769,167.81117, 51.033295,168.14378 C 51.10553,168.46706, 51.177765,168.79027, 51.24997,169.11342 C 51.25119,169.2137, 51.25235,169.31398, 51.25354,169.41426 C 51.304016,169.64037, 51.354584,169.86647, 51.40509,170.09251 C 51.40811,170.34789, 51.411102,170.60332, 51.414124,170.85863 C 51.46942,171.10591, 51.52472,171.3532, 51.580017,171.60042 C 51.583252,171.87361, 51.586456,172.14677, 51.58969,172.41994 C 51.600067,172.43883, 51.610413,172.45775, 51.62082,172.47667 C 51.647736,172.56844, 51.674774,172.66023, 51.70172,172.75203 C 51.773285,172.87584, 51.84485,172.99959, 51.91635,173.1234 C 51.998108,173.38338, 52.079987,173.64339, 52.161713,173.90334 C 52.29004,174.13576, 52.418365,174.36818, 52.54666,174.60056 C 52.573578,174.69228, 52.600555,174.78398, 52.627472,174.87569 C 52.805084,175.1829, 52.982574,175.49005, 53.160095,175.79718 C 53.238647,175.88821, 53.3172,175.97919, 53.395752,176.07019 C 53.487488,176.2462, 53.579224,176.42224, 53.6709,176.59824 C 53.801514,176.73581, 53.93213,176.87337, 54.062653,177.01093 C 54.223724,177.28957, 54.384766,177.56819, 54.545746,177.84679 C 54.904083,178.3646, 55.2623,178.88232, 55.620483,179.39989 C 55.63269,179.43045, 55.644928,179.46104, 55.657196,179.49161 C 55.88611,179.80055, 56.11496,180.10944, 56.34381,180.4183 C 56.609802,180.68254, 56.875885,180.9468, 57.141846,181.21097 C 57.14798,181.31378, 57.154114,181.41661, 57.16031,181.51942 C 57.19165,181.56186, 57.223083,181.60431, 57.254456,181.64674 C 58.1268,182.15132, 58.99887,182.65572, 59.870636,183.15999 C 60.353607,183.34521, 60.836487,183.53038, 61.319336,183.71553 C 61.426147,183.7943, 61.53293,183.87308, 61.63971,183.95183 C 61.762695,183.98291, 61.88568,184.014, 62.008698,184.04512 C 62.097748,184.09662, 62.1868,184.14815, 62.27585,184.19966 C 63.058807,184.4999, 63.841583,184.80005, 64.624146,185.10016 C 64.730865,185.17882, 64.837494,185.25754, 64.94418,185.33621 C 65.06702,185.36728, 65.18991,185.39835, 65.312775,185.4294 C 65.4017,185.48085, 65.49069,185.53232, 65.57962,185.58379 C 66.06174,185.76865, 66.54385,185.95348, 67.02582,186.13829 C 67.132416,186.21692, 67.23892,186.29561, 67.34555,186.37419 C 67.46832,186.40523, 67.591095,186.43626, 67.7139,186.46727 C 67.957825,186.60841, 68.20172,186.74959, 68.44565,186.89072 C 68.691956,186.96106, 68.93817,187.03139, 69.18448,187.10172 C 69.46402,187.12456, 69.74344,187.14738, 70.02295,187.17023 C 70.32266,187.28513, 70.62225,187.40001, 70.921906,187.51492 C 71.02835,187.59348, 71.134735,187.67206, 71.24118,187.75061 C 71.36383,187.78159, 71.48648,187.81258, 71.60913,187.84357 C 71.83731,187.97562, 72.06546,188.10773, 72.29358,188.23976 C 72.506714,188.3006, 72.719696,188.36143, 72.9328,188.42226 C 72.99335,188.45964, 73.0538,188.497, 73.11438,188.53438 C 73.182465,188.54036, 73.25064,188.54628, 73.318726,188.55226 C 73.61813,188.66704, 73.91742,188.78181, 74.21677,188.89659 C 74.32309,188.97507, 74.42935,189.05359, 74.535645,189.13208 C 74.6582,189.16301, 74.78073,189.19395, 74.90323,189.2249 C 75.53299,189.58948, 76.16263,189.95398, 76.792114,190.31839 C 77.27603,190.31387, 77.75995,190.30937, 78.243805,190.30484 C 78.515564,190.38245, 78.787384,190.46005, 79.05908,190.53766 C 79.33795,190.56035, 79.61673,190.58307, 79.8956,190.60579 C 80.19443,190.72038, 80.493164,190.83493, 80.79193,190.94952 C 80.89761,191.02768, 81.00336,191.10576, 81.10907,191.18391 C 81.32187,191.23213, 81.53476,191.28026, 81.74753,191.32848 C 81.85925,191.32742, 81.97107,191.32637, 82.082794,191.32532 C 82.09897,191.31233, 82.11511,191.2994, 82.13132,191.28644 C 82.180145,191.29878, 82.229004,191.3111, 82.27783,191.32349 C 82.326294,191.32301, 82.374664,191.32257, 82.42313,191.32211 C 82.81116,191.43286, 83.19913,191.54366, 83.58707,191.65439 C 83.977356,191.75304, 84.36752,191.8517, 84.75769,191.95032 C 84.80118,191.97542, 84.844666,192.00055, 84.88812,192.02568 C 84.936615,192.03949, 84.98505,192.0533, 85.03357,192.06714 C 85.043365,192.08707, 85.0531,192.10701, 85.0629,192.12694 C 85.24875,192.23462, 85.43454,192.34233, 85.62033,192.44998 C 85.8013,192.51944, 85.98236,192.58887, 86.16327,192.65831 C 86.269135,192.73657, 86.37494,192.81487, 86.480804,192.89314 C 86.60297,192.92397, 86.7251,192.95482, 86.84726,192.98566 C 87.64319,193.44691, 88.4389,193.908, 89.234375,194.36896 C 89.34247,194.47687, 89.4505,194.58475, 89.55856,194.69261 C 89.64502,194.69754, 89.731476,194.70244, 89.81787,194.70734 C 90.04312,195.01364, 90.26825,195.31985, 90.49344,195.62607 C 90.53381,195.66634, 90.57416,195.70659, 90.61456,195.74687 C 90.64798,195.74901, 90.68143,195.75111, 90.714874,195.75327 C 90.80191,195.87163, 90.88895,195.99002, 90.97598,196.10838 C 91.07733,196.20958, 91.17877,196.31078, 91.28006,196.41193 C 91.28192,196.45132, 91.28381,196.4907, 91.285645,196.53008 C 91.32028,196.57718, 91.35495,196.6243, 91.38959,196.67139 C 91.65164,196.93297, 91.91373,197.19455, 92.17566,197.45605 C 92.18115,197.558, 92.18652,197.65993, 92.19202,197.76184 C 92.28464,197.88783, 92.37726,198.01378, 92.46988,198.13976 C 92.569855,198.37263, 92.66992,198.60555, 92.76987,198.83836 C 92.810425,199.0485, 92.85092,199.25859, 92.89145,199.46869 C 92.946075,199.52559, 93.00079,199.58246, 93.05539,199.63936 C 93.03531,199.7614, 93.01523,199.88339, 92.99512,200.00542 C 93.1181,200.64333, 93.24097,201.28116, 93.36389,201.91873 C 93.07147,202.44331, 92.779175,202.96783, 92.486786,203.49223 C 92.4895,203.53676, 92.49213,203.58125, 92.49484,203.62576 C 92.45813,203.65506, 92.42151,203.68437, 92.38483,203.71368 C 92.27521,204.37831, 92.16568,205.04274, 92.05609,205.70709 C 91.59024,206.06287, 91.12433,206.41864, 90.65848,206.77434 C 90.60068,206.87808, 90.54297,206.98181, 90.48514,207.08553 C 90.41232,207.08142, 90.33951,207.0773, 90.26669,207.0732 C 90.11337,207.1903, 89.95993,207.30739, 89.80658,207.42448 C 89.51047,207.54424, 89.21445,207.66396, 88.918335,207.78369 C 88.64105,207.81181, 88.36383,207.83992, 88.08655,207.86804 C 87.81705,207.95052, 87.547485,208.03297, 87.277954,208.11542 C 86.69681,208.12167, 86.11569,208.1279, 85.534454,208.13417 C 85.57251,208.30864, 85.61066,208.48308, 85.64874,208.6575 C 85.65164,209.18216, 85.65457,209.7067, 85.65747,210.23117 C 85.708984,210.33054, 85.760376,210.42993, 85.81183,210.5293 C 85.77704,210.68367, 85.74234,210.83801, 85.70752,210.99237 C 85.80469,211.49165, 85.901886,211.99088, 85.99899,212.48994 C 85.70871,213.01094, 85.41846,213.53189, 85.128265,214.0527 C 85.096466,214.20699, 85.064606,214.36127, 85.03284,214.5155 C 84.985596,214.54788, 84.938446,214.58025, 84.891266,214.6126 C 84.75058,215.23648, 84.609955,215.86028, 84.46936,216.48392 C 84.18454,216.57869, 83.89981,216.67345, 83.61496,216.76826 C 83.45261,217.0596, 83.29031,217.3509, 83.12799,217.64217 C 82.514404,217.60913, 81.90079,217.57607, 81.28708,217.54298 C 80.66968,217.74852, 80.05231,217.95398, 79.434875,218.15955 C 79.06,217.90067, 78.685,217.64172, 78.31003,217.38275 C 78.17468,217.37546, 78.039276,217.36812, 77.90396,217.36082 C 77.772736,217.18402, 77.64145,217.00717, 77.51022,216.83035 C 77.38324,216.7427, 77.256256,216.65501, 77.12933,216.56735 C 76.92981,216.337, 76.730255,216.10661, 76.53073,215.87624 C 76.39404,215.61366, 76.257385,215.35112, 76.1207,215.0885 C 76.07034,215.07434, 76.02005,215.06015, 75.969635,215.04597 C 75.80423,214.94453, 75.6387,214.84314, 75.47327,214.74168 C 74.980774,214.65083, 74.48816,214.55994, 73.995544,214.46909 C 73.82245,214.38286, 73.649445,214.29668, 73.47632,214.21045 C 73.289764,214.18271, 73.10327,214.15497, 72.91672,214.12721 C 72.52936,213.95001, 72.141815,213.77277, 71.754364,213.59552 C 71.47156,213.51573, 71.18884,213.43593, 70.905975,213.35614 C 70.84564,213.31921, 70.7854,213.2823, 70.72513,213.24536 C 70.65729,213.2396, 70.589386,213.23384, 70.521576,213.22806 C 69.92511,213.00165, 69.32846,212.77522, 68.73175,212.54872 C 68.72595,212.5447, 68.72006,212.54066, 68.7142,212.53664 C 68.41989,212.60928, 68.12543,212.68192, 67.831024,212.75452 C 67.80234,212.75319, 67.77368,212.7519, 67.744934,212.75056 C 67.71869,212.76433, 67.69238,212.77809, 67.66611,212.79182 C 67.20639,212.88718, 66.74661,212.98251, 66.286835,213.07788 C 66.11911,213.14566, 65.95148,213.21346, 65.78375,213.28122 C 65.71597,213.28853, 65.64816,213.29576, 65.58038,213.30309 C 65.52069,213.34134, 65.46109,213.37961, 65.40137,213.41788 C 65.14035,213.49773, 64.87927,213.57758, 64.618256,213.65742 C 64.054535,213.94897, 63.490936,214.24055, 62.927246,214.53209 C 62.81726,214.55421, 62.707306,214.57635, 62.59729,214.59845 C 62.50122,214.66504, 62.405243,214.73166, 62.309143,214.7982 C 61.70224,215.00946, 61.095367,215.22072, 60.488403,215.43195 C 60.243866,215.55013, 59.999268,215.66838, 59.75476,215.78659 C 58.723236,216.6125, 57.691833,217.43832, 56.660614,218.26404 C 56.55774,218.3085, 56.454834,218.35295, 56.35202,218.39743 C 56.269592,218.48216, 56.187256,218.56691, 56.10486,218.65166 C 55.76062,218.8589, 55.41638,219.06618, 55.072205,219.2734 C 54.78476,219.48065, 54.497406,219.68794, 54.20996,219.89516 C 54.14566,220.03114, 54.0813,220.16711, 54.016968,220.30307 C 53.80124,220.36903, 53.5856,220.435, 53.369812,220.50098 C 53.180084,220.63782, 52.990326,220.77469, 52.8006,220.91148 C 52.671997,220.87202, 52.543396,220.8326, 52.414795,220.79312 C 52.08365,220.89441, 51.75238,220.99573, 51.421173,221.09706 C 50.527985,221.10753, 49.634705,221.11801, 48.74124,221.1285 C 48.4693,221.05223, 48.197266,220.97598, 47.925323,220.89973 C 47.646454,220.87791, 47.367676,220.85605, 47.088776,220.83421 C 47.058228,220.82268, 47.0278,220.81114, 46.997253,220.79959 C 46.186768,220.80908, 45.37616,220.81857, 44.56549,220.82806 C 44.293304,220.75175, 44.021057,220.67546, 43.74884,220.59918 C 43.469727,220.57732, 43.190704,220.55548, 42.91162,220.5336 C 42.881042,220.52206, 42.850586,220.51051, 42.820038,220.49898 C 42.804047,220.49916, 42.788177,220.49936, 42.772217,220.49953 C 42.499878,220.4232, 42.227478,220.3469, 41.95517,220.27057 C 41.675934,220.2487, 41.39685,220.22682, 41.117615,220.20497 C 40.947937,220.14105, 40.77832,220.07713, 40.608612,220.01323 C 40.28784,219.9545, 39.96707,219.8957, 39.6463,219.83698 C 38.811096,219.84668, 37.97586,219.8564, 37.140472,219.8661 C 36.951263,219.92395, 36.762024,219.9818, 36.572815,220.03966 C 36.35849,220.04214, 36.144104,220.04463, 35.92975,220.04713 C 35.722656,220.11041, 35.515656,220.17366, 35.308533,220.23695 C 35.224426,220.23793, 35.14023,220.2389, 35.05612,220.23988 C 34.866913,220.29776, 34.677612,220.3556, 34.488403,220.41347 C 34.274017,220.41597, 34.05951,220.41846, 33.845154,220.42097 C 33.638,220.48427, 33.431,220.54752, 33.223846,220.61082 C 32.9252,220.6143, 32.626617,220.61778, 32.32794,220.62126 C 31.580902,220.4123, 30.83377,220.20331, 30.086395,219.99425 C 30.050903,219.99713, 30.01538,219.99995, 29.97992,220.00284 C 29.970917,219.98766, 29.962067,219.97253, 29.953064,219.95735 C 29.869354,219.93391, 29.785583,219.91046, 29.701843,219.88701 C 29.271515,219.03822, 28.841064,218.18909, 28.41037,217.33966 C 27.930908,216.5261, 27.451294,215.71223, 26.971497,214.89803 C 26.988556,214.79947, 27.005554,214.7009, 27.022675,214.60231 C 27.014893,214.58644, 27.00705,214.57059, 26.999268,214.5547 C 27.016266,214.51826, 27.033386,214.48186, 27.050446,214.44542 C 27.202576,213.56508, 27.35492,212.68456, 27.50711,211.8037 C 27.581055,211.62271, 27.654846,211.44173, 27.72876,211.26073 C 27.94278,210.64537, 28.156982,210.02983, 28.371124,209.41423 C 28.38382,209.34976, 28.396484,209.28528, 28.40918,209.2208 C 28.390228,208.04912, 28.371277,206.877, 28.352325,205.7043 C 28.341583,205.66853, 28.330872,205.63281, 28.32016,205.59705 C 28.293274,205.26843, 28.266449,204.93976, 28.239563,204.61108 C 28.166199,204.2917, 28.092834,203.97232, 28.01944,203.65288 C 28.01529,203.39778, 28.0112,203.14265, 28.007019,202.88753 C 27.938385,202.72467, 27.869812,202.56175, 27.801178,202.39886 C 27.69168,201.81294, 27.582062,201.2269, 27.472565,200.6407 C 27.4776,200.43613, 27.482697,200.23152, 27.487732,200.02692 C 27.44928,199.85945, 27.410706,199.69194, 27.372223,199.52444 C 27.349579,199.47342, 27.326904,199.4224, 27.30423,199.37137 C 27.274567,199.22714, 27.244904,199.0829, 27.215271,198.93867 C 27.1456,198.81445, 27.075806,198.69025, 27.006104,198.56601 C 26.84021,198.01477, 26.674286,197.46342, 26.5083,196.91193 C 26.493774,196.9024, 26.47931,196.89296, 26.464752,196.88344 C 26.45166,196.82616, 26.438538,196.76892, 26.425385,196.71162 C 26.40271,196.66052, 26.380005,196.60944, 26.3573,196.55835 C 26.26239,196.09738, 26.16745,195.63634, 26.072449,195.17522 C 25.967224,194.71696, 25.861938,194.25862, 25.756683,193.80019 C 25.755707,193.74272, 25.75473,193.68529, 25.753815,193.62782 C 25.741882,193.57014, 25.730011,193.51244, 25.71814,193.45474 C 25.72873,193.43538, 25.739319,193.41594, 25.74997,193.39653 C 25.746613,193.19586, 25.743286,192.99513, 25.73996,192.79442 C 25.688416,192.56989, 25.63675,192.34526, 25.585205,192.12067 C 25.580994,191.8668, 25.576752,191.6129, 25.57254,191.359 C 25.516052,191.11311, 25.459534,190.86722, 25.403076,190.62129 C 25.377502,189.08807, 25.351929,187.55397, 25.326355,186.01903 C 25.28769,185.85028, 25.248962,185.68147, 25.210297,185.51273 C 25.090454,185.286, 24.97055,185.05917, 24.850708,184.83241 C 24.883453,184.67953, 24.916138,184.52666, 24.948883,184.37376 C 24.858215,183.9786, 24.767548,183.58347, 24.676819,183.1882 C 24.669373,182.74402, 24.661926,182.29979, 24.65448,181.85547 C 24.560211,181.17366, 24.466003,180.4917, 24.371735,179.80956 C 24.382233,179.6611, 24.392761,179.51265, 24.403198,179.3642 C 24.370056,179.21976, 24.336975,179.07532, 24.303833,178.93086 C 24.246002,175.49437, 24.18805,172.05351, 24.130035,168.60829 C 24.17331,168.38564, 24.216675,168.16301, 24.259949,167.94032 C 24.251038,167.71129, 24.242157,167.4822, 24.233185,167.25313 C 24.40503,166.24825, 24.576996,165.24297, 24.748932,164.23741 C 24.91681,162.75587, 25.084839,161.27351, 25.252869,159.79045 C 25.267792,159.74617, 25.282715,159.70192, 25.297638,159.65764 C 25.295135,159.60982, 25.292633,159.56203, 25.29013,159.51418 C 25.350128,159.12004, 25.410065,158.72585, 25.470093,158.33156 C 25.418182,155.19728, 25.36621,152.05937, 25.314209,148.9178 C 25.311432,148.90453, 25.308746,148.89119, 25.305939,148.87791 C 25.199738,148.41139, 25.093475,147.94481, 24.987244,147.47813 C 24.986237,147.41966, 24.98526,147.36122, 24.984283,147.30278 C 24.97226,147.24406, 24.960297,147.18532, 24.948303,147.12663 C 24.958984,147.10692, 24.969666,147.0872, 24.980377,147.06752 C 24.972687,146.60527, 24.965027,146.1429, 24.957336,145.68044 C 25.16095,144.63011, 25.364716,143.57945, 25.568481,142.52837 C 25.745361,142.40602, 25.92221,142.28368, 26.099152,142.16136 C 26.13559,141.92128, 26.172089,141.68114, 26.208588,141.44102 C 26.968445,140.85555, 27.728302,140.26997, 28.488312,139.68437 C 28.671143,139.61049, 28.854034,139.5366, 29.036835,139.46272 C 29.92688,138.92424, 30.816986,138.3857, 31.707153,137.84715 C 31.79898,137.82228, 31.890808,137.79741, 31.982635,137.77254 C 32.05951,137.70836, 32.136322,137.64418, 32.213135,137.58003 C 33.016296,137.21541, 33.819397,136.85072, 34.62256,136.48607 C 34.829254,136.45683, 35.03604,136.42763, 35.242767,136.39839 C 35.435913,136.30794, 35.628967,136.21739, 35.822083,136.1269 C 36.628662,136.00264, 37.43521,135.8784, 38.24167,135.75417 C 38.352722,135.76958, 38.463898,135.78499, 38.57498,135.80043 C 38.68289,135.76765, 38.790802,135.73491, 38.898712,135.70213 C 40.110687,135.69606, 41.32242,135.68996, 42.533936,135.68385 C 43.420624,135.94221, 44.30716,136.20045, 45.19342,136.4587 C 45.67325,137.42958, 46.152893,138.4001, 46.632294,139.3702 C 47.24591,139.0666, 47.919525,138.89754, 48.627686,138.89381 C 48.62686,138.89369, 48.625946,138.8936, 48.62506,138.89348z" fill-rule="evenodd" fill="#000000" stroke="none" fill-opacity="1" />
				<path d="M90.75,156.72365 C 90.73984,154.49852, 91.710266,152.53783, 93.17929,151.42308 C 93.07892,147.15889, 95.23758,142.80348, 99.784546,140.05843 C 100.59766,139.81465, 101.410614,139.57088, 102.22366,139.3271 C 102.515015,139.32555, 102.800934,139.3524, 103.0795,139.40556 C 106.227936,139.87099, 113.50757,142.39107, 114.401276,146.65123 C 115.634094,152.52785, 115.33765,166.95354, 108.2486,167.47554 C 105.016785,167.71361, 104.30386,163.87276, 102.46713,163.2476 C 101.23422,162.82796, 100.12109,162.29109, 99.129425,161.66005 C 98.26041,162.43987, 97.18085,162.90547, 96.009705,162.91393 C 93.121185,162.93468, 90.76581,160.16493, 90.75,156.72365z" fill-rule="evenodd" fill="#000000" stroke="none" fill-opacity="1" />
				<path d="M60.062683,180.57283 C 60.69339,193.21849, 45.532684,200.46698, 38.648438,204.58836 C 35.493927,206.47685, 28.307953,208.19212, 25.821442,205.3558 C 14.860382,192.85292, 35.149048,195.02516, 40.286102,191.29413 C 44.48828,188.24211, 47.160736,183.0733, 50.013,178.3514 C 50.15103,177.99562, 50.316864,177.65805, 50.507233,177.34259 C 51.444427,175.79018, 52.977478,174.77396, 54.720154,174.75983 C 57.29889,174.73895, 59.465424,176.91896, 59.93817,179.80963 C 60.006256,180.04927, 60.049164,180.30292, 60.062683,180.57283z" fill-rule="evenodd" fill="#FE0000" stroke="none" fill-opacity="1" />
				<path d="M36.656677,213.42001 C 33.38333,213.45639, 29.203339,215.41238, 26.842285,212.72345 C 23.110046,208.47292, 23.563263,201.71576, 29.276703,201.16133 C 37.416016,200.37148, 41.03476,200.39026, 47.793213,195.35904 C 51.89389,192.30634, 55.132263,185.18604, 58.680145,182.74269 C 59.572937,180.90932, 61.24225,179.66978, 63.165802,179.65347 C 66.059235,179.6289, 68.42801,182.38069, 68.45776,185.7958 C 68.46811,186.98376, 68.19406,188.09552, 67.71069,189.04117 C 65.6405,200.21056, 44.459076,213.33327, 36.656677,213.42001z" fill-rule="evenodd" fill="#C30000" stroke="none" fill-opacity="1" />
				<path d="M68.43182,201.22804 C 60.823975,207.8152, 53.494415,213.92107, 44.659485,218.34122 C 42.371704,219.48581, 31.295471,221.12291, 29.450256,219.02333 C 25.20633,214.19417, 28.921295,210.30338, 31.9234,208.13403 C 34.636017,206.17386, 38.507263,208.19655, 41.161987,206.86809 C 47.389862,203.75127, 52.53253,199.46838, 57.945618,194.77486 C 59.821228,193.14865, 67.38391,184.91505, 69.214935,185.97498 C 69.31088,185.96666, 69.407715,185.96335, 69.50516,185.96248 C 72.3923,185.93652, 74.75275,188.67934, 74.77847,192.08482 C 76.30325,194.90135, 69.61063,200.20688, 68.43179,201.2276 C 68.43182,201.22775, 68.43182,201.2279, 68.43182,201.22804z" fill-rule="evenodd" fill="#8E0000" stroke="none" fill-opacity="1" />
				<path d="M95.91174,135.7743 C 98.11142,138.2072, 101.5051,141.53148, 100.58838,144.93416 C 100.55255,145.067, 100.447754,145.27272, 100.28827,145.5359 C 100.1564,145.7696, 100.011566,145.9923, 99.85507,146.20229 C 97.95868,148.98326, 93.12344,154.88557, 93.31656,155.69139 C 93.632965,157.01128, 108.336334,162.98842, 110.839264,167.67152 C 112.75394,171.25395, 110.11163,176.28398, 106.77466,177.3927 C 104.08264,178.28716, 97.05557,171.27855, 95.40744,170.37465 C 80.20502,162.03658, 78.81473,160.43141, 87.45538,145.01933 C 88.410706,143.31544, 92.06375,136.86867, 93.05768,136.79762 C 94.009094,136.4565, 94.96039,136.1154, 95.91174,135.7743z" fill-rule="evenodd" fill="#00081C" stroke="none" fill-opacity="1" />
				<path d="M69.13275,147.85359 C 65.76071,153.86967, 50.413788,158.09264, 59.519806,168.67995 C 65.49011,175.62146, 74.18323,181.45055, 81.867676,185.1818 C 88.50757,188.40593, 94.49411,184.28156, 100.17667,191.7577 C 101.49661,193.49425, 101.175385,196.60912, 102.3533,198.59666 C 103.94653,201.2851, 115.39252,218.26039, 102.713104,218.40707 C 98.14444,218.45992, 91.92465,199.3405, 91.34198,199.21231 C 75.308136,195.68585, 60.477417,188.64037, 49.242096,173.88408 C 40.545166,162.46162, 51.591095,143.25371, 61.4032,139.29024 C 61.66046,139.13475, 61.917633,138.97926, 62.174896,138.82378 C 62.904266,138.35966, 63.737488,138.0948, 64.624176,138.0902 C 66.83038,138.07869, 68.73364,139.68114, 69.541046,141.9645 C 70.35324,143.52834, 70.422516,145.55235, 69.13275,147.85359z" fill-rule="evenodd" fill="#04009D" stroke="none" fill-opacity="1" />
				<path d="M73.58746,147.18864 C 70.43552,150.42406, 62.302246,160.35497, 66.16507,165.84132 C 69.93402,171.19438, 77.21307,173.01741, 82.51199,174.54205 C 91.22067,177.04776, 101.84799,185.5666, 108.10443,193.23065 C 110.58368,196.26767, 118.64255,217.73901, 105.7944,212.83548 C 104.144226,212.20567, 103.08835,210.11513, 102.30588,208.28783 C 101.806946,207.12267, 103.105255,205.48431, 102.53143,204.36739 C 100.86548,201.12517, 97.5202,198.471, 94.99182,196.46465 C 83.45792,187.31244, 63.80536,185.26833, 56.041534,170.33333 C 50.77762,160.2072, 57.761078,149.63908, 62.894867,142.75874 C 64.09235,141.15392, 67.95163,133.94377, 70.208435,134.66487 C 70.63016,134.53261, 71.072845,134.46117, 71.52963,134.45891 C 74.44321,134.4445, 76.82419,137.24889, 76.84885,140.71867 C 77.43164,141.60329, 76.77704,143.05785, 75.89041,144.37871 C 75.69562,144.70723, 75.4747,145.01225, 75.23154,145.28966 C 74.55463,146.16624, 73.8815,146.88686, 73.58746,147.18864z" fill-rule="evenodd" fill="#04007F" stroke="none" fill-opacity="1" />
				<path d="M72.8696,139.02309 C 73.25784,138.62105, 73.634766,138.2516, 74.00192,137.91899 C 74.956024,136.66386, 76.332794,135.87318, 77.86841,135.8654 C 80.77835,135.85072, 83.153046,138.65202, 83.173645,142.11827 C 83.1774,142.74504, 83.10376,143.35063, 82.963715,143.92229 C 82.70715,144.9692, 82.227234,145.90236, 81.5892,146.6432 C 78.59143,151.69933, 72.69794,158.82796, 73.64584,159.55873 C 84.11731,167.63197, 100.377716,166.48341, 108.217896,179.29686 C 110.271545,182.65332, 115.94495,190.5611, 111.94162,195.34229 C 103.61322,205.28886, 102.93271,187.05835, 96.861786,183.41794 C 89.50934,179.00908, 51.716187,169.72667, 64.547455,151.61617 C 67.39731,147.5937, 69.91913,143.4835, 72.8573,139.3362 C 72.86145,139.23186, 72.86545,139.12746, 72.8696,139.02309z" fill-rule="evenodd" fill="#03004E" stroke="none" fill-opacity="1" />
				<path d="M91.150085,144.80946 C 91.12781,144.90456, 91.08551,145.01799, 91.02417,145.14809 C 90.60318,146.66673, 89.70764,147.92815, 88.54611,148.68156 C 85.9621,152.00557, 82.47711,156.23537, 83.05316,157.19121 C 84.04755,158.84123, 87.02496,158.42213, 88.37781,159.37468 C 95.641785,164.48936, 112.28955,170.4767, 114.06641,179.93915 C 114.51691,182.3382, 111.25156,186.98811, 108.87515,186.85324 C 104.97601,186.63199, 103.6214,180.3439, 99.89026,179.53072 C 93.455444,178.12831, 75.20758,168.50526, 71.87143,162.03133 C 69.262665,156.96901, 77.83487,143.34532, 82.3584,138.67903 C 82.59262,138.40663, 82.84796,138.16014, 83.1214,137.94344 C 83.82507,137.31956, 84.37329,137.00871, 84.68204,137.10747 C 85.10297,136.97536, 85.54465,136.90398, 86.00021,136.90166 C 88.90582,136.8867, 91.27286,139.68492, 91.2883,143.14763 C 91.28833,143.15263, 91.28836,143.16017, 91.28839,143.16768 C 91.333374,143.649, 91.293335,144.18892, 91.15015,144.81065 C 91.15015,144.81026, 91.150085,144.80986, 91.150085,144.80946z" fill-rule="evenodd" fill="#01002B" stroke="none" fill-opacity="1" />
				<path d="M48.86154,197.95302 C 51.25766,199.52791, 52.967194,202.47333, 54.01413,205.60437 C 54.346863,206.59953, 54.612732,207.61348, 54.81241,208.60828 C 55.003357,209.55945, 55.225616,215.8119, 55.939484,215.90746 C 63.92047,216.97606, 61.269745,190.36324, 71.86832,195.79385 C 78.014984,198.94333, 73.80539,205.59962, 72.13199,209.80467 C 70.272156,214.4781, 69.13074,218.37473, 66.41089,222.2841 C 58.533417,233.60643, 46.019745,227.8294, 45.03366,214.12827 C 44.86664,211.80687, 42.005463,202.67198, 44.388824,201.03152 C 45.879547,200.00552, 47.37036,198.97931, 48.86154,197.95302z" fill-rule="evenodd" fill="#000000" stroke="none" fill-opacity="1" />
				<path d="M72.73752,196.66162 C 75.118164,198.2345, 76.808624,201.17584, 77.83807,204.3025 C 78.16525,205.29628, 78.42572,206.30878, 78.6203,207.30215 C 78.8064,208.252, 79.00046,214.49554, 79.711334,214.59102 C 87.65906,215.65894, 85.13446,189.08412, 95.67114,194.50793 C 101.78201,197.65356, 97.55835,204.29982, 95.87256,208.49867 C 93.99893,213.16525, 92.84451,217.05618, 90.11728,220.95967 C 82.218414,232.26503, 69.77487,226.49489, 68.85248,212.8132 C 68.69623,210.49515, 65.88541,201.3731, 68.267395,199.73528 C 69.75726,198.71085, 71.24725,197.68631, 72.73752,196.66162z" fill-rule="evenodd" fill="#000000" stroke="none" fill-opacity="1" />
				<path d="M98.83032,143.65651 C 90.06198,142.00877, 79.72348,141.87126, 70.84244,142.26674 C 68.75177,142.3597, 67.69144,144.54216, 65.40079,144.80818 C 59.36508,145.5093, 53.352295,143.10075, 47.325928,143.11607 C 44.890106,143.12218, 35.270782,144.77998, 27.760742,144.26836 C 27.770386,144.55171, 27.7771,144.81194, 27.783325,145.04134 C 28.110687,154.66643, 30.166046,163.602, 30.34967,173.39049 C 30.508118,181.83992, 30.8555,187.45769, 31.042908,198.42773 C 31.057587,199.28723, 30.833344,202.27077, 30.539856,204.6741 C 30.541626,204.72336, 30.542877,204.77255, 30.54367,204.8223 C 30.554535,205.5145, 30.467743,206.18085, 30.298096,206.8034 C 30.45044,207.18408, 30.592651,207.56982, 30.724579,207.95845 C 31.062714,208.95457, 31.333832,209.96948, 31.538422,210.96523 C 31.73407,211.91731, 31.983978,218.17601, 32.700592,218.27151 C 40.712616,219.33966, 37.938843,192.70059, 48.595764,198.13467 C 54.776398,201.2862, 50.58139,207.94997, 48.920532,212.15958 C 47.074615,216.83804, 45.946198,220.73877, 43.23413,224.65251 C 35.37921,235.9876, 22.799347,230.20726, 21.751068,216.49265 C 21.61847,214.75995, 19.968018,209.23865, 20.12439,205.85779 C 20.08023,205.55602, 20.054626,205.24684, 20.049011,204.93188 C 20.035736,204.18158, 20.13742,203.46121, 20.334991,202.79373 C 18.4794,194.79678, 20.287323,183.77989, 20.150116,176.56151 C 20.00821,169.07307, 19.3833,163.76564, 17.9888,156.99666 C 17.105164,152.7069, 16.208557,143.40913, 18.269745,138.60374 C 18.373352,132.3636, 30.354858,130.5497, 34.983734,130.52834 C 44.278015,130.4854, 54.037415,132.53691, 63.168976,132.23955 C 65.36951,132.1678, 67.682556,129.65639, 70.08569,129.64543 C 79.65732,129.60179, 90.12781,129.45326, 99.529724,131.2336 C 103.37802,131.96227, 116.50644,129.85283, 118.73413,134.20708 C 118.78644,134.25798, 118.838104,134.3102, 118.888855,134.36339 C 120.36313,135.46379, 121.34207,137.42128, 121.34152,139.65645 C 121.562164,140.72334, 121.670654,141.79161, 121.66968,142.75487 C 121.657104,154.09947, 120.438416,165.07774, 120.41272,176.19711 C 120.39624,183.59886, 124.528015,194.14328, 121.59183,199.60776 C 120.964935,201.92532, 119.70099,204.28426, 118.94302,206.15648 C 117.055664,210.81802, 115.88849,214.7049, 113.153534,218.60399 C 105.23242,229.89668, 92.85443,224.12987, 91.99347,210.4616 C 91.84769,208.14583, 89.08511,199.03238, 91.46628,197.39662 C 92.95563,196.37354, 94.44513,195.35027, 95.934906,194.3269 C 98.300934,195.89864, 99.97327,198.83734, 100.98596,201.96104 C 101.30783,202.9539, 101.56311,203.96545, 101.75284,204.95789 C 101.934235,205.9068, 102.10101,212.14413, 102.80917,212.23967 C 106.96811,212.8009, 108.27908,205.7721, 110.1037,199.73344 C 110.05917,199.41145, 110.035706,199.08081, 110.03534,198.7435 C 110.035,198.4233, 110.054535,198.10852, 110.095276,197.80107 C 105.94263,186.06223, 110.96454,165.86635, 111.18347,153.85036 C 111.21246,152.26167, 110.79242,149.06349, 110.62689,145.63527 C 106.803406,145.51402, 102.622406,144.36916, 98.82971,143.65648 C 98.829926,143.65648, 98.83011,143.65651, 98.83032,143.65651z" fill-rule="evenodd" fill="#000000" stroke="none" fill-opacity="1" />
			</g>
			<g id="layer.g27.uuid_0x6">
				<path d="M129.14056,82.48802 C 129.07782,108.1396, 96.42966,128.90709, 68.57428,129.03276 C 50.6456,129.11366, 30.474548,122.37834, 21.200714,109.499466 C 15.989136,102.26201, 17.157654,91.893814, 16.991302,82.58412 C 16.71463,67.09859, 21.105225,57.06926, 32.14792,45.15326 C 39.71338,36.989563, 29.342041,22.356201, 49.428467,21.141785 C 52.402405,20.962036, 87.72565,18.52069, 103.59317,27.783691 C 125.434204,40.533875, 129.1773,67.477036, 129.14056,82.48802z" fill-rule="evenodd" fill="#000000" stroke="none" fill-opacity="1" />
				<path d="M56.210114,86.42293 C 56.171722,82.85872, 59.02365,79.964096, 62.57831,79.96175 C 66.13098,79.95943, 69.033936,82.8474, 69.063965,86.408005 C 69.093994,89.964035, 66.24649,92.84816, 62.70215,92.85411 C 59.155792,92.86, 56.248444,89.98253, 56.210114,86.42293z" fill-rule="evenodd" fill="#22163A" stroke="none" fill-opacity="1" />
				<path d="M111.29962,88.12282 C 110.72394,78.12227, 110.14621,68.08452, 109.56625,58.009262 C 109.56625,58.009262, 111.29962,88.12282, 111.29962,88.12282z" fill-rule="evenodd" fill="#000000" stroke="none" fill-opacity="1" />
				<path d="M29.387817,119.3185 C 24.770111,114.814316, 29.245544,110.271805, 29.245544,110.271805 C 29.973938,109.64061, 30.702515,109.00929, 31.431122,108.377945 C 59.527954,92.81743, 53.258453,52.807617, 52.9429,24.729126 C 52.9429,24.729126, 52.868713,18.12555, 59.3815,18.152893 C 65.8876,18.180176, 65.94638,24.777039, 65.94638,24.777039 C 66.25287,59.19258, 70.970764,99.85594, 37.968567,119.46391 C 38.133667,119.40416, 38.298798,119.344345, 38.46396,119.28462 C 38.46396,119.28462, 33.99469,123.81215, 29.387817,119.3185z" fill-rule="evenodd" fill="#FEFEFE" stroke="none" fill-opacity="1" />
				<path d="M37.272858,127.866745 C 30.936218,126.847885, 31.894226,120.55504, 31.894226,120.55504 C 32.733765,117.69383, 33.574036,114.83006, 34.4151,111.96367 C 39.376434,106.94133, 43.812256,101.574295, 48.776794,96.52968 C 48.776794,96.52968, 49.911102,95.379135, 51.623627,94.81038 C 52.3696,92.16826, 53.17389,89.559616, 54.2547,87.17619 C 56.949554,81.23326, 60.4888,76.07271, 61.23462,69.296616 C 62.94232,53.781845, 59.16565,37.020874, 58.97879,21.233154 C 58.97879,21.233154, 58.911713,14.624451, 65.42236,14.653564 C 71.92639,14.682678, 71.97803,21.284668, 71.97803,21.284668 C 72.07477,37.59265, 75.956665,54.84752, 74.03348,70.882095 C 73.04767,79.101395, 69.24548,85.40764, 65.94241,92.63292 C 63.10849,98.831894, 62.146606,106.5468, 59.211304,112.4807 C 57.012573,116.92555, 53.15988,120.335464, 50.3143,124.3842 C 47.97293,125.501785, 45.631683,126.61937, 43.290497,127.73689 C 43.290497,127.73689, 41.854187,128.1013, 40.182373,127.78975 C 39.36783,127.99739, 38.406403,128.049, 37.272858,127.866745z" fill-rule="evenodd" fill="#B8B8B8" stroke="none" fill-opacity="1" />
				<path d="M56.791718,128.89034 C 51.04596,126.07332, 53.840088,120.368, 53.840088,120.368 C 54.450623,119.12877, 55.06143,117.889084, 55.672424,116.64894 C 60.42975,108.596115, 59.94229,98.77559, 62.532776,89.71086 C 64.285095,83.57909, 68.43698,78.031815, 70.02344,71.85097 C 71.60367,65.69426, 71.87958,57.878494, 72.226685,51.483337 C 72.44064,47.542786, 73.42856,43.436584, 72.338196,39.622375 C 70.88193,34.528076, 67.791595,29.997864, 66.221466,24.914307 C 66.221466,24.914307, 64.296875,18.588684, 70.50812,16.717102 C 76.71756,14.846191, 78.62567,21.174683, 78.62567,21.174683 C 80.17529,26.408081, 83.456635,31.030396, 84.8165,36.29248 C 87.54135,46.836243, 85.11539,64.965195, 82.45621,75.23311 C 80.80731,81.59999, 76.59888,87.21959, 74.817535,93.5067 C 71.89258,103.830215, 71.974976,113.453995, 66.83057,122.92711 C 66.32831,123.955795, 65.8262,124.98421, 65.32425,126.012344 C 65.32425,126.012344, 62.526306,131.70204, 56.791718,128.89034z" fill-rule="evenodd" fill="#797979" stroke="none" fill-opacity="1" />
				<path d="M72.37973,126.95204 C 66.00644,126.97978, 65.94885,120.62221, 65.94885,120.62221 C 65.944916,118.377884, 65.94101,116.13167, 65.93713,113.88365 C 69.14847,87.55553, 89.86264,55.87349, 71.527954,30.37622 C 71.527954,30.37622, 67.71274,25.008606, 72.96484,21.197998 C 78.21982,17.385376, 82.023926,22.76538, 82.023926,22.76538 C 96.92078,44.038513, 91.740265,73.86116, 84.180176,97.0569 C 82.02399,103.67247, 79.397156,108.42427, 78.619934,115.42241 C 78.64792,117.14043, 78.6759,118.857315, 78.70386,120.573135 C 78.70386,120.573135, 78.74661,126.92442, 72.37973,126.95204z" fill-rule="evenodd" fill="#585858" stroke="none" fill-opacity="1" />
				<path d="M81.74182,131.13652 C 75.38281,131.1663, 75.33615,124.823135, 75.33615,124.823135 C 75.322815,122.43257, 75.30951,120.03999, 75.29614,117.64522 C 76.79263,104.9315, 82.5379,94.70192, 85.4458,82.441025 C 86.43173,78.284195, 85.50397,73.870926, 85.22623,69.5869 C 84.34613,56.011154, 84.18561,43.7782, 78.62402,30.920471 C 78.62402,30.920471, 76.02994,24.867493, 81.971924,22.29602 C 87.91382,19.724548, 90.492645,25.784058, 90.492645,25.784058 C 96.55853,40.15149, 97.12305,53.757217, 98.038574,68.87352 C 98.36981,74.343155, 99.135315,79.95668, 97.94214,85.27699 C 95.34506,96.85753, 89.448456,106.48799, 88.018616,118.38957 C 88.03357,120.51802, 88.04855,122.64479, 88.06348,124.76991 C 88.06348,124.76991, 88.09537,131.10677, 81.74271,131.13652 C 81.74237,131.13652, 81.742096,131.13652, 81.74182,131.13652z" fill-rule="evenodd" fill="#343434" stroke="none" fill-opacity="1" />
				<path d="M54.02539,23.664246 C 53.60843,24.090149, 53.19153,24.51593, 52.774628,24.941772 C 39.900513,38.00464, 34.214172,54.501724, 27.04071,70.92436 C 23.107117,80.39613, 18.264465,92.57527, 22.435333,102.863785 C 26.843445,113.73741, 37.62671,115.4572, 47.432068,117.85594 C 58.74579,120.6237, 68.410706,121.79567, 79.98584,121.78801 C 85.04666,121.78581, 88.27951,122.4482, 92.87747,120.50157 C 100.40668,117.31395, 106.331024,112.74693, 112.58792,107.59111 C 116.57547,101.93593, 121.0632,94.32405, 121.96338,87.29372 C 122.4765,83.285904, 120.41037,75.4391, 119.533905,71.44386 C 117.87933,63.900528, 116.018036,55.08293, 112.507965,48.124878 C 109.71817,42.594666, 102.61719,39.637146, 98.03177,36.276 C 96.46359,35.126526, 95.41263,33.226013, 93.65689,32.398804 C 81.38446,26.61676, 67.650085,25.200378, 54.02539,23.664246 C 54.02539,23.664246, 54.02539,23.664246, 54.02539,23.664246zM45.975464,12.966736 C 46.459503,12.152039, 47.083435,11.568726, 47.748627,11.152222 C 47.955627,10.945862, 52.03485,6.9802246, 56.370026,10.650085 C 71.230865,12.373474, 86.1889,14.206238, 99.59067,20.769653 C 101.899506,21.90039, 103.48642,24.17096, 105.57233,25.679749 C 112.2106,30.481384, 119.62155,34.172424, 123.72571,41.8078 C 127.93451,49.637573, 130.13788,60.05217, 131.99939,68.64607 C 133.34009,74.836105, 135.3717,82.54295, 134.58698,88.80293 C 133.33917,98.75835, 127.523865,108.32817, 121.88251,116.21379 C 114.37128,122.59715, 106.93869,128.61592, 97.65436,132.24113 C 81.63953,138.49434, 60.63788,134.14839, 44.48456,130.22276 C 30.685944,126.86943, 16.745605,122.72716, 10.641144,107.9001 C 4.8456726,93.82356, 9.7221985,78.85469, 15.076202,65.66298 C 22.934204,47.619446, 29.421783,29.989075, 43.44287,15.558289 C 44.286957,14.69458, 45.131134,13.830688, 45.975464,12.966736z" fill-rule="evenodd" fill="#000000" stroke="none" fill-opacity="1" />
			</g>
		</g>
	</g>
</svg>
